<svg height="512" viewBox="0 0 512 512" width="512" xmlns="http://www.w3.org/2000/svg"><g><g><path d="m103.79 114.34-23.79 269.66h128 96 128l-23.79-269.66z" fill="#ff9811"/><g><path d="m360 136v48h-208v-48" fill="#787680"/><circle cx="448" cy="168" fill="#ffda44" r="16"/><path d="m448 496h-384a77.71 77.71 0 0 1 53.13-73.71l90.87-30.29q48 48 96 0l90.87 30.29a77.7 77.7 0 0 1 53.13 73.71z" fill="#3e3d42"/><path d="m304 359.01v32.99q-48 48-96 0v-32.99z" fill="#ffdaaa"/><path d="m152 184h208a0 0 0 0 1 0 0v80a104 104 0 0 1 -104 104 104 104 0 0 1 -104-104v-80a0 0 0 0 1 0 0z" fill="#ffdaaa"/><path d="m496 88-240 72-240-72 240-72z" fill="#3e3d42"/></g><g fill="#ffdaaa"><path d="m140 192h12a0 0 0 0 1 0 0v64a0 0 0 0 1 0 0h-12a20 20 0 0 1 -20-20v-24a20 20 0 0 1 20-20z"/><path d="m380 192h12a0 0 0 0 1 0 0v64a0 0 0 0 1 0 0h-12a20 20 0 0 1 -20-20v-24a20 20 0 0 1 20-20z" transform="matrix(-1 0 0 -1 752 448)"/></g></g><g><path d="m498.3 80.34-240-72a8.006 8.006 0 0 0 -4.6 0l-240 72a8 8 0 0 0 0 15.32l81.55 24.47-23.22 263.17a8 8 0 0 0 7.97 8.7h102.7l-68.1 22.7a85.591 85.591 0 0 0 -58.6 81.3 8 8 0 0 0 8 8h384a8 8 0 0 0 8-8 85.591 85.591 0 0 0 -58.6-81.3l-68.1-22.7h102.7a8 8 0 0 0 7.97-8.7l-23.22-263.17 23.25-6.98v32.23a24 24 0 1 0 16 0v-37.03l42.3-12.69a8 8 0 0 0 0-15.32zm-409.56 295.66 22.16-251.18 33.2 9.96a8.141 8.141 0 0 0 -.1 1.22v48h-4a28.031 28.031 0 0 0 -28 28v24a28.031 28.031 0 0 0 28 28h4a112.055 112.055 0 0 0 56 96.96v15.04zm55.26-176v48h-4a12.01 12.01 0 0 1 -12-12v-24a12.01 12.01 0 0 1 12-12zm208-8v72a96 96 0 0 1 -192 0v-72zm-192-16v-36.45l93.7 28.11a7.949 7.949 0 0 0 4.6 0l93.7-28.11v36.45zm88 312h-175.54a69.582 69.582 0 0 1 47.2-58.12l86.28-28.76c13.82 12.82 27.91 20.23 42.06 22.26zm8-80a.34.34 0 0 0 -.1.01c-13.16-.04-26.32-6.5-39.9-19.38v-20.02a111.949 111.949 0 0 0 80 0v20.02c-13.58 12.88-26.74 19.34-39.9 19.38a.34.34 0 0 0 -.1-.01zm136.34 21.88a69.582 69.582 0 0 1 47.2 58.12h-175.54v-64.62c14.15-2.03 28.24-9.44 42.06-22.26zm30.92-53.88h-111.26v-15.04a112.055 112.055 0 0 0 56-96.96h4a28.031 28.031 0 0 0 28-28v-24a28.031 28.031 0 0 0 -28-28h-4v-48a8.141 8.141 0 0 0 -.1-1.22l33.2-9.96zm-55.26-128v-48h4a12.01 12.01 0 0 1 12 12v24a12.01 12.01 0 0 1 -12 12zm80-72a8 8 0 1 1 8-8 8.011 8.011 0 0 1 -8 8zm-192-24.35-212.16-63.65 212.16-63.65 212.16 63.65z"/><path d="m272 296h-32a8 8 0 0 0 0 16h32a8 8 0 0 0 0-16z"/><path d="m224 216h-32a8 8 0 0 0 0 16h32a8 8 0 0 0 0-16z"/><path d="m328 224a8 8 0 0 0 -8-8h-32a8 8 0 0 0 0 16h32a8 8 0 0 0 8-8z"/></g></g></svg>